<svg width="183" height="28" viewBox="0 0 183 28" fill="none" xmlns="http://www.w3.org/2000/svg">
<path d="M74.4034 24.4914C80.3604 24.4914 84.5183 20.1398 84.5183 13.7765C84.5183 7.41319 80.3604 3.06152 74.4034 3.06152C68.4465 3.06152 64.2886 7.41319 64.2886 13.7765C64.2886 20.1398 68.4465 24.4914 74.4034 24.4914ZM74.4034 21.4945C70.3655 21.4945 67.6469 18.2513 67.6469 13.7765C67.6469 9.30165 70.3655 6.05843 74.4034 6.05843C78.4414 6.05843 81.16 9.30165 81.16 13.7765C81.16 18.2513 78.4414 21.4945 74.4034 21.4945Z" fill="#FFB500"/>
<path d="M97.7129 3.30784C94.0747 3.30784 92.5155 4.86788 91.556 6.46896L91.1162 3.30784H88.2777V24.2451H91.556V13.5712C91.556 10.2459 92.7154 6.59212 96.9933 6.59212H98.6324V3.30784H97.7129Z" fill="#FFB500"/>
<path d="M118.725 21.1661C117.885 21.1661 117.366 20.6735 117.366 19.6471V10.6154C117.366 5.73 114.367 3.06152 109.17 3.06152C104.252 3.06152 101.014 5.48368 100.534 9.58902H103.813C104.212 7.45424 106.131 6.05843 109.01 6.05843C112.208 6.05843 114.087 7.70056 114.087 10.4101V11.847H108.09C102.733 11.847 99.8946 14.187 99.8946 18.3745C99.8946 22.1924 102.933 24.4914 107.411 24.4914C110.929 24.4914 112.968 22.8903 114.247 21.0019C114.287 23.0546 115.207 24.2451 117.925 24.2451H119.725V21.1661H118.725ZM114.087 15.706C114.087 19.1955 111.729 21.6177 107.651 21.6177C104.932 21.6177 103.213 20.2219 103.213 18.1692C103.213 15.7881 104.852 14.6797 107.771 14.6797H114.087V15.706Z" fill="#FFB500"/>
<path d="M144.993 3.06152C141.355 3.06152 139.156 4.78577 137.917 7.04371C136.757 4.37523 134.319 3.06152 131.48 3.06152C128.322 3.06152 126.603 4.66261 125.523 6.18159L125.083 3.30784H122.245V24.2451H125.523V13.2017C125.523 9.01427 127.562 6.14053 130.92 6.14053C134.039 6.14053 135.838 8.27531 135.838 12.3807V24.2451H139.116V13.0375C139.116 8.76795 141.195 6.14053 144.593 6.14053C147.672 6.14053 149.431 8.27531 149.431 12.3807V24.2451H152.709V12.1754C152.709 5.56579 149.231 3.06152 144.993 3.06152Z" fill="#FFB500"/>
<path d="M174.986 21.1661C174.146 21.1661 173.626 20.6735 173.626 19.6471V10.6154C173.626 5.73 170.628 3.06152 165.43 3.06152C160.513 3.06152 157.275 5.48368 156.795 9.58902H160.073C160.473 7.45424 162.392 6.05843 165.271 6.05843C168.469 6.05843 170.348 7.70056 170.348 10.4101V11.847H164.351C158.994 11.847 156.155 14.187 156.155 18.3745C156.155 22.1924 159.194 24.4914 163.671 24.4914C167.19 24.4914 169.229 22.8903 170.508 21.0019C170.548 23.0546 171.467 24.2451 174.186 24.2451H175.985V21.1661H174.986ZM170.348 15.706C170.348 19.1955 167.989 21.6177 163.911 21.6177C161.193 21.6177 159.473 20.2219 159.473 18.1692C159.473 15.7881 161.113 14.6797 164.031 14.6797H170.348V15.706Z" fill="#FFB500"/>
<path d="M178.106 22.1924C178.106 23.5882 179.065 24.4914 180.384 24.4914C181.704 24.4914 182.663 23.5882 182.663 22.1924C182.663 20.7966 181.704 19.8934 180.384 19.8934C179.065 19.8934 178.106 20.7966 178.106 22.1924Z" fill="#FFB500"/>
<path fill-rule="evenodd" clip-rule="evenodd" d="M9.12409 0C4.085 0 0 4.00649 0 8.94875V18.604C0 23.5462 4.08499 27.5527 9.12409 27.5527H47.0018C52.0409 27.5527 56.1259 23.5462 56.1259 18.604V8.94875C56.1259 4.00649 52.0409 0 47.0018 0H9.12409ZM4.70236 5.51408C3.6415 5.51408 2.7815 6.35755 2.7815 7.39803V20.1547C2.7815 21.1952 3.6415 22.0387 4.70236 22.0387H51.2833C52.3441 22.0387 53.2041 21.1952 53.2041 20.1547V7.39803C53.2041 6.35755 52.3441 5.51408 51.2833 5.51408H4.70236Z" fill="#FFB500"/>
</svg>
